<svg width="23" height="22" viewBox="0 0 23 22" fill="none" xmlns="http://www.w3.org/2000/svg">
    <path fill-rule="evenodd" clip-rule="evenodd"
        d="M0.5 4.99997C0.5 3.60352 0.5 2.9053 0.696408 2.34399C1.0482 1.33863 1.83866 0.548171 2.84402 0.196379C3.40533 -2.96384e-05 4.10355 -3.05176e-05 5.5 -3.05176e-05C6.89645 -3.05176e-05 7.59467 -2.96384e-05 8.15598 0.196379C9.16134 0.548171 9.9518 1.33863 10.3036 2.34399C10.5 2.9053 10.5 3.60352 10.5 4.99997C10.5 6.39642 10.5 7.09464 10.3036 7.65595C9.9518 8.66131 9.16134 9.45177 8.15598 9.80356C7.59467 9.99997 6.89645 9.99997 5.5 9.99997C4.10355 9.99997 3.40533 9.99997 2.84402 9.80356C1.83866 9.45177 1.0482 8.66131 0.696408 7.65595C0.5 7.09464 0.5 6.39642 0.5 4.99997ZM2.5 4.39997C2.5 3.55989 2.5 3.13985 2.66349 2.81898C2.8073 2.53674 3.03677 2.30727 3.31901 2.16346C3.63988 1.99997 4.05992 1.99997 4.9 1.99997H6.1C6.94008 1.99997 7.36012 1.99997 7.68099 2.16346C7.96323 2.30727 8.1927 2.53674 8.33651 2.81898C8.5 3.13985 8.5 3.55989 8.5 4.39997V5.59997C8.5 6.44005 8.5 6.86009 8.33651 7.18096C8.1927 7.4632 7.96323 7.69267 7.68099 7.83648C7.36012 7.99997 6.94008 7.99997 6.1 7.99997H4.9C4.05992 7.99997 3.63988 7.99997 3.31901 7.83648C3.03677 7.69267 2.8073 7.4632 2.66349 7.18096C2.5 6.86009 2.5 6.44005 2.5 5.59997V4.39997ZM0.5 17C0.5 15.6035 0.5 14.9053 0.696408 14.344C1.0482 13.3386 1.83866 12.5482 2.84402 12.1964C3.40533 12 4.10355 12 5.5 12C6.89645 12 7.59467 12 8.15598 12.1964C9.16134 12.5482 9.9518 13.3386 10.3036 14.344C10.5 14.9053 10.5 15.6035 10.5 17C10.5 18.3964 10.5 19.0946 10.3036 19.6559C9.9518 20.6613 9.16134 21.4518 8.15598 21.8036C7.59467 22 6.89645 22 5.5 22C4.10355 22 3.40533 22 2.84402 21.8036C1.83866 21.4518 1.0482 20.6613 0.696408 19.6559C0.5 19.0946 0.5 18.3964 0.5 17ZM2.5 16.4C2.5 15.5599 2.5 15.1399 2.66349 14.819C2.8073 14.5367 3.03677 14.3073 3.31901 14.1635C3.63988 14 4.05992 14 4.9 14H6.1C6.94008 14 7.36012 14 7.68099 14.1635C7.96323 14.3073 8.1927 14.5367 8.33651 14.819C8.5 15.1399 8.5 15.5599 8.5 16.4V17.6C8.5 18.44 8.5 18.8601 8.33651 19.181C8.1927 19.4632 7.96323 19.6927 7.68099 19.8365C7.36012 20 6.94008 20 6.1 20H4.9C4.05992 20 3.63988 20 3.31901 19.8365C3.03677 19.6927 2.8073 19.4632 2.66349 19.181C2.5 18.8601 2.5 18.44 2.5 17.6V16.4ZM12.6964 2.34399C12.5 2.9053 12.5 3.60352 12.5 4.99997C12.5 6.39642 12.5 7.09464 12.6964 7.65595C13.0482 8.66131 13.8387 9.45177 14.844 9.80356C15.4053 9.99997 16.1036 9.99997 17.5 9.99997C18.8965 9.99997 19.5947 9.99997 20.156 9.80356C21.1613 9.45177 21.9518 8.66131 22.3036 7.65595C22.5 7.09464 22.5 6.39642 22.5 4.99997C22.5 3.60352 22.5 2.9053 22.3036 2.34399C21.9518 1.33863 21.1613 0.548171 20.156 0.196379C19.5947 -2.96384e-05 18.8965 -3.05176e-05 17.5 -3.05176e-05C16.1036 -3.05176e-05 15.4053 -2.96384e-05 14.844 0.196379C13.8387 0.548171 13.0482 1.33863 12.6964 2.34399ZM14.6635 2.81898C14.5 3.13985 14.5 3.55989 14.5 4.39997V5.59997C14.5 6.44005 14.5 6.86009 14.6635 7.18096C14.8073 7.4632 15.0368 7.69267 15.319 7.83648C15.6399 7.99997 16.0599 7.99997 16.9 7.99997H18.1C18.9401 7.99997 19.3601 7.99997 19.681 7.83648C19.9632 7.69267 20.1927 7.4632 20.3365 7.18096C20.5 6.86009 20.5 6.44005 20.5 5.59997V4.39997C20.5 3.55989 20.5 3.13985 20.3365 2.81898C20.1927 2.53674 19.9632 2.30727 19.681 2.16346C19.3601 1.99997 18.9401 1.99997 18.1 1.99997H16.9C16.0599 1.99997 15.6399 1.99997 15.319 2.16346C15.0368 2.30727 14.8073 2.53674 14.6635 2.81898ZM12.5 17C12.5 15.6035 12.5 14.9053 12.6964 14.344C13.0482 13.3386 13.8387 12.5482 14.844 12.1964C15.4053 12 16.1036 12 17.5 12C18.8965 12 19.5947 12 20.156 12.1964C21.1613 12.5482 21.9518 13.3386 22.3036 14.344C22.5 14.9053 22.5 15.6035 22.5 17C22.5 18.3964 22.5 19.0946 22.3036 19.6559C21.9518 20.6613 21.1613 21.4518 20.156 21.8036C19.5947 22 18.8965 22 17.5 22C16.1036 22 15.4053 22 14.844 21.8036C13.8387 21.4518 13.0482 20.6613 12.6964 19.6559C12.5 19.0946 12.5 18.3964 12.5 17ZM14.5 16.4C14.5 15.5599 14.5 15.1399 14.6635 14.819C14.8073 14.5367 15.0368 14.3073 15.319 14.1635C15.6399 14 16.0599 14 16.9 14H18.1C18.9401 14 19.3601 14 19.681 14.1635C19.9632 14.3073 20.1927 14.5367 20.3365 14.819C20.5 15.1399 20.5 15.5599 20.5 16.4V17.6C20.5 18.44 20.5 18.8601 20.3365 19.181C20.1927 19.4632 19.9632 19.6927 19.681 19.8365C19.3601 20 18.9401 20 18.1 20H16.9C16.0599 20 15.6399 20 15.319 19.8365C15.0368 19.6927 14.8073 19.4632 14.6635 19.181C14.5 18.8601 14.5 18.44 14.5 17.6V16.4Z"
        fill="#88868D" />
</svg>