<svg width="23" height="24" viewBox="0 0 23 24" fill="none" xmlns="http://www.w3.org/2000/svg">
<path fill-rule="evenodd" clip-rule="evenodd" d="M7.67369 4.0084C7.14271 4.01653 6.69231 4.03273 6.29744 4.065C5.52552 4.12806 5.05435 4.24749 4.68404 4.43617C3.93139 4.81966 3.31947 5.43159 2.93597 6.18423C2.74729 6.55455 2.62787 7.02572 2.5648 7.79764C2.50078 8.58123 2.5 9.58356 2.5 11.0002V15.0002C2.5 16.4168 2.50078 17.4192 2.5648 18.2028C2.62787 18.9747 2.74729 19.4458 2.93597 19.8162C3.31947 20.5688 3.93139 21.1807 4.68404 21.5642C5.05435 21.7529 5.52552 21.8723 6.29744 21.9354C7.08104 21.9994 8.08337 22.0002 9.5 22.0002H13.5C14.9166 22.0002 15.919 21.9994 16.7026 21.9354C17.4745 21.8723 17.9457 21.7529 18.316 21.5642C19.0686 21.1807 19.6805 20.5688 20.064 19.8162C20.2527 19.4458 20.3721 18.9747 20.4352 18.2028C20.4992 17.4192 20.5 16.4168 20.5 15.0002V11.0002C20.5 9.58356 20.4992 8.58123 20.4352 7.79764C20.3721 7.02572 20.2527 6.55455 20.064 6.18423C19.6805 5.43159 19.0686 4.81966 18.316 4.43617C17.9457 4.24749 17.4745 4.12806 16.7026 4.065C16.3077 4.03273 15.8573 4.01653 15.3263 4.0084C14.9121 5.1692 13.8031 6 12.5 6H10.5C9.19692 6 8.08789 5.1692 7.67369 4.0084ZM15.3322 2.00825C15.9056 2.01687 16.4135 2.03471 16.8654 2.07164C17.761 2.14481 18.5247 2.29787 19.2239 2.65416C20.3529 3.2294 21.2708 4.14728 21.846 5.27625C22.2023 5.9755 22.3554 6.73917 22.4286 7.63477C22.5 8.50934 22.5 9.59333 22.5 10.9563V10.9564V11.0002V15.0002V15.044V15.0441C22.5 16.4071 22.5 17.4911 22.4286 18.3656C22.3554 19.2612 22.2023 20.0249 21.846 20.7241C21.2708 21.8531 20.3529 22.771 19.2239 23.3462C18.5247 23.7025 17.761 23.8556 16.8654 23.9288C15.9909 24.0002 14.9069 24.0002 13.5439 24.0002H13.5438H13.5H9.5H9.45622H9.45613C8.09313 24.0002 7.00914 24.0002 6.13458 23.9288C5.23898 23.8556 4.47531 23.7025 3.77606 23.3462C2.64709 22.771 1.7292 21.8531 1.15396 20.7241C0.797677 20.0249 0.644616 19.2612 0.571443 18.3656C0.499986 17.491 0.499992 16.407 0.5 15.044V15.044V15.0002V11.0002V10.9564V10.9564C0.499992 9.59339 0.499986 8.50936 0.571443 7.63477C0.644616 6.73917 0.797677 5.9755 1.15396 5.27625C1.7292 4.14728 2.64709 3.2294 3.77606 2.65416C4.47531 2.29787 5.23898 2.14481 6.13458 2.07164C6.58653 2.03471 7.0944 2.01687 7.6678 2.00825C8.0773 0.83875 9.1907 0 10.5 0H12.5C13.8093 0 14.9227 0.83875 15.3322 2.00825ZM9.5 3C9.5 2.44772 9.94772 2 10.5 2H12.5C13.0523 2 13.5 2.44772 13.5 3C13.5 3.55228 13.0523 4 12.5 4H10.5C9.94772 4 9.5 3.55228 9.5 3ZM7.5 13.5C7.5 12.9477 7.05228 12.5 6.5 12.5C5.94772 12.5 5.5 12.9477 5.5 13.5C5.5 14.0523 5.94772 14.5 6.5 14.5C7.05228 14.5 7.5 14.0523 7.5 13.5ZM6.5 8C7.05228 8 7.5 8.44771 7.5 9C7.5 9.55228 7.05228 10 6.5 10C5.94772 10 5.5 9.55228 5.5 9C5.5 8.44771 5.94772 8 6.5 8ZM7.5 18C7.5 17.4477 7.05228 17 6.5 17C5.94772 17 5.5 17.4477 5.5 18C5.5 18.5523 5.94772 19 6.5 19C7.05228 19 7.5 18.5523 7.5 18ZM10.5 12.5C9.94772 12.5 9.5 12.9477 9.5 13.5C9.5 14.0523 9.94772 14.5 10.5 14.5H16.5C17.0523 14.5 17.5 14.0523 17.5 13.5C17.5 12.9477 17.0523 12.5 16.5 12.5H10.5ZM9.5 9C9.5 8.44772 9.94772 8 10.5 8H16.5C17.0523 8 17.5 8.44772 17.5 9C17.5 9.55228 17.0523 10 16.5 10H10.5C9.94772 10 9.5 9.55228 9.5 9ZM10.5 17C9.94772 17 9.5 17.4477 9.5 18C9.5 18.5523 9.94772 19 10.5 19H14.5C15.0523 19 15.5 18.5523 15.5 18C15.5 17.4477 15.0523 17 14.5 17H10.5Z" fill="#5F7EEE"/>
</svg>
