<svg width="22" height="22" viewBox="0 0 22 22" fill="none" xmlns="http://www.w3.org/2000/svg">
<path d="M11 0.285721C11.5917 0.285721 12.0714 0.765416 12.0714 1.35715V9.92858H20.6428C21.2346 9.92858 21.7143 10.4083 21.7143 11C21.7143 11.5917 21.2346 12.0714 20.6428 12.0714H12.0714V20.6429C12.0714 21.2346 11.5917 21.7143 11 21.7143C10.4083 21.7143 9.92856 21.2346 9.92856 20.6429V12.0714H1.35713C0.7654 12.0714 0.285706 11.5917 0.285706 11C0.285706 10.4083 0.7654 9.92858 1.35713 9.92858H9.92856V1.35715C9.92856 0.765416 10.4083 0.285721 11 0.285721Z" fill="#5F7EEE"/>
</svg>
